<?xml version="1.0" encoding="UTF-8" standalone="no"?>
<svg width="1080px" height="44px" viewBox="0 0 1080 44" version="1.1" xmlns="http://www.w3.org/2000/svg" xmlns:xlink="http://www.w3.org/1999/xlink">
    <!-- Generator: Sketch 3.8.3 (29802) - http://www.bohemiancoding.com/sketch -->
    <title>Divider</title>
    <desc>Created with Sketch.</desc>
    <defs>
        <circle id="path-1" cx="20" cy="20" r="20"></circle>
        <mask id="mask-2" maskContentUnits="userSpaceOnUse" maskUnits="objectBoundingBox" x="-2" y="-2" width="44" height="44">
            <rect x="-2" y="-2" width="44" height="44" fill="white"></rect>
            <use xlink:href="#path-1" fill="black"></use>
        </mask>
        <ellipse id="path-3" cx="20" cy="20" rx="17.5" ry="17.5510204"></ellipse>
        <mask id="mask-4" maskContentUnits="userSpaceOnUse" maskUnits="objectBoundingBox" x="0" y="0" width="35" height="35.1020408" fill="white">
            <use xlink:href="#path-3"></use>
        </mask>
    </defs>
    <g id="Final" stroke="none" stroke-width="1" fill="none" fill-rule="evenodd">
        <g id="Landing-Page-(Desktop)" transform="translate(-180.000000, -4735.000000)">
            <g id="About-Our-Firm" transform="translate(180.000000, 3867.000000)">
                <g id="Divider" transform="translate(0.000000, 870.000000)">
                    <rect id="right" fill="#333333" x="576" y="20" width="504" height="2"></rect>
                    <rect id="left" fill="#333333" x="0" y="20" width="504" height="2"></rect>
                    <g id="Logo-mark" transform="translate(520.000000, 0.000000)">
                        <g id="Outer-border">
                            <path d="M19.2857143,0.012517337 L19.2857143,16.9300878 L14.9234642,0.649948973 C14.6925734,0.710357746 14.46331,0.774789681 14.2357534,0.843165373 L18.5957673,17.1149586 L10.1949554,2.56432565 C9.98732044,2.68134135 9.78198564,2.8019587 9.57903579,2.92609296 L17.9771777,17.4721014 L6.11264343,5.60756716 C5.94131117,5.77292363 5.77292363,5.94131117 5.60756716,6.11264343 L17.4721014,17.9771777 L2.92609296,9.57903579 C2.8019587,9.78198564 2.68134135,9.98732044 2.56432565,10.1949554 L17.1149586,18.5957673 L0.843165373,14.2357534 C0.774789681,14.46331 0.710357746,14.6925734 0.649948973,14.9234642 L16.9300878,19.2857143 L0.012517337,19.2857143 C0.00419564835,19.5227832 1.70530257e-13,19.7609016 1.70530257e-13,20 L16.9300878,20 L0.486895177,24.4059402 C0.53926649,24.6388835 0.595702211,24.870289 0.656123953,25.1000785 L17.1149586,20.689947 L2.26891057,29.2613168 C2.37947427,29.4725608 2.4937023,29.6815843 2.61151029,29.8883029 L17.4721014,21.3085366 L5.26124982,33.5193882 C5.42231631,33.6948882 5.58647655,33.8675031 5.75364411,34.0371464 L17.9771777,21.8136129 L9.27586375,36.8847307 C9.47663768,37.0125163 9.67984471,37.1368194 9.88539977,37.2575548 L18.5957673,22.1707557 L14.0588457,39.1027774 C14.2858029,39.1732865 14.514492,39.2398624 14.7448332,39.3024253 L19.2857143,22.3556265 L19.2857143,39.9874827 C19.5227832,39.9958044 19.7609016,40 20,40 L20,22.3556265 L24.5862348,39.4716876 C24.8186277,39.4171622 25.0494592,39.3585839 25.2786508,39.2960313 L20.689947,22.1707557 L29.5764091,37.5625596 C29.785568,37.4482686 29.9924609,37.3303501 30.1970032,37.2088886 L21.3085366,21.8136129 L33.8873566,34.3924328 C34.0586888,34.2270764 34.2270764,34.0586888 34.3924328,33.8873566 L21.8136129,21.3085366 L37.2088886,30.1970032 C37.3303501,29.9924609 37.4482686,29.785568 37.5625596,29.5764091 L22.1707557,20.689947 L39.2960313,25.2786508 C39.3585839,25.0494592 39.4171622,24.8186277 39.4716876,24.5862348 L22.3556265,20 L40,20 C40,19.7609016 39.9958044,19.5227832 39.9874827,19.2857143 L22.3556265,19.2857143 L39.3024253,14.7448332 C39.2398624,14.514492 39.1732865,14.2858029 39.1027774,14.0588457 L22.1707557,18.5957673 L37.2575548,9.88539977 C37.1368194,9.67984471 37.0125163,9.47663768 36.8847307,9.27586375 L21.8136129,17.9771777 L34.0371464,5.75364411 C33.8675031,5.58647655 33.6948882,5.42231631 33.5193882,5.26124982 L21.3085366,17.4721014 L29.8883029,2.61151029 C29.6815843,2.4937023 29.4725608,2.37947427 29.2613168,2.26891058 L20.689947,17.1149586 L25.1000785,0.656123953 C24.870289,0.595702211 24.6388835,0.53926649 24.4059402,0.486895177 L20,16.9300878 L20,-9.99200722e-16 C19.7609016,0 19.5227832,0.00419564835 19.2857143,0.012517337 Z" id="Combined-Shape" fill="#333333"></path>
                            <use id="outer" stroke="#333333" mask="url(#mask-2)" stroke-width="4" xlink:href="#path-1"></use>
                            <use id="inner" stroke="#333333" mask="url(#mask-4)" stroke-width="4" fill="#FAFAF5" xlink:href="#path-3"></use>
                        </g>
                        <g id="Scale" transform="translate(8.333333, 10.612245)" fill="#333333">
                            <g id="Group">
                                <path d="M7.83785442,13.0775328 L7.6463729,13.0775328 C7.6463729,13.062093 7.64407144,13.0466532 7.63854793,13.0316958 L4.19372162,2.98422891 C4.61488892,2.88628251 5.04019885,2.68990722 5.48438075,2.46313478 C5.60037437,2.40378794 5.71774886,2.34251113 5.83696453,2.28026933 C7.09862526,1.62118175 8.55821161,0.859805322 10.3952375,1.77172006 C10.534706,1.84071678 10.6760157,1.9193634 10.8196269,2.00862489 C10.8610531,2.0341971 10.9061618,2.04915444 10.9508101,2.05446188 L10.9508101,3.0300659 L10.6958083,3.0300659 L10.6958083,12.4744146 L10.4707254,12.4744146 L10.4707254,16.746904 C9.6178041,16.8733176 8.87673377,17.2052738 8.36166687,17.6631612 L7.41300479,17.6631612 L7.41300479,18.6074031 L7.02727998,18.6074031 L7.02727998,19.3499622 L15.2968884,19.3499622 L15.2968884,18.6074031 L15.0395851,18.6074031 L15.0395851,17.6631612 L14.1231435,17.6631612 C13.5956487,17.193694 12.8297226,16.8569128 11.9501043,16.7372541 L11.9501043,12.4739321 L11.6605806,12.4739321 L11.6605806,3.0300659 L11.4018964,3.0300659 L11.4018964,2.05349689 C11.4244507,2.04577697 11.4465447,2.03564459 11.4677182,2.02261723 C11.6440101,1.91309097 11.8166196,1.81996952 11.9864674,1.74035791 C13.7797656,0.899852372 15.2103535,1.64675397 16.4503805,2.29426168 C16.545661,2.34395862 16.6395606,2.39317306 16.7325396,2.44094003 C17.25313,2.70872451 17.7461029,2.9408044 18.2367743,3.02765342 L14.784123,13.0963501 C14.7790598,13.1117899 14.776298,13.1267473 14.776298,13.1421871 L14.5539769,13.1421871 C14.9516693,13.7974147 15.8299067,14.255302 16.84347,14.255302 L20.2105069,14.255302 C21.2236099,14.255302 22.1018473,13.7978972 22.5,13.1421871 L22.2776789,13.1421871 C22.2776789,13.1267473 22.2753774,13.1117899 22.2698539,13.0963501 L18.8268688,3.05467312 C18.9677182,3.04116327 19.1090279,3.0122136 19.2517184,2.96492913 C19.4234074,2.90799477 19.5186879,2.71547944 19.4648337,2.53502647 C19.4105192,2.35505599 19.2268626,2.25469712 19.0551737,2.31163148 C18.3785442,2.53550896 17.6070946,2.132626 16.7417454,1.68052858 C15.2955075,0.925424584 13.614981,0.0477669624 11.4018964,1.27716312 L11.4018964,9.07718345e-13 L10.9512704,9.07718345e-13 L10.9512704,1.30032286 C8.70596539,0.0168873099 7.00656683,0.904677317 5.5460599,1.66701874 C4.68071069,2.11911615 3.90926108,2.52199911 3.23309194,2.29812163 C3.06094268,2.24118727 2.87774641,2.34106365 2.82343194,2.52151662 C2.76911747,2.70196959 2.86439794,2.89400243 3.0365472,2.95093679 C3.2179023,3.01076611 3.39741623,3.04164576 3.57693016,3.04791819 L0.153737572,13.0307308 C0.148674359,13.0456882 0.146372898,13.061128 0.146372898,13.0765678 L4.54747351e-13,13.0765678 C0.392168897,13.7313129 1.25843869,14.1896828 2.2581932,14.1896828 L5.57966122,14.1896828 C6.57941574,14.1906478 7.44568553,13.7322779 7.83785442,13.0775328 L7.83785442,13.0775328 L7.83785442,13.0775328 Z M22.0093286,13.1421871 L18.6584019,3.36925958 L18.6584019,13.1421871 L22.0093286,13.1421871 L22.0093286,13.1421871 L22.0093286,13.1421871 Z M18.3960354,13.1421871 L18.3960354,13.1412221 L18.3960354,3.36925958 L15.0543145,13.1156499 L15.0451086,13.1421871 L18.3960354,13.1421871 L18.3960354,13.1421871 L18.3960354,13.1421871 Z M4.02709586,3.30460531 L4.02709586,13.0775328 L7.37802259,13.0775328 L4.02709586,3.30460531 L4.02709586,3.30460531 L4.02709586,3.30460531 Z M0.414723211,13.0775328 L3.76564993,13.0775328 L3.76564993,13.0760853 L3.76564993,3.30460531 L0.423468762,13.0514781 L0.414723211,13.0775328 L0.414723211,13.0775328 L0.414723211,13.0775328 Z" id="Shape"></path>
                            </g>
                        </g>
                    </g>
                </g>
            </g>
        </g>
    </g>
</svg>