<?xml version="1.0" encoding="UTF-8" standalone="no"?>
<svg width="25px" height="17px" viewBox="0 0 25 17" version="1.1" xmlns="http://www.w3.org/2000/svg" xmlns:xlink="http://www.w3.org/1999/xlink">
    <!-- Generator: Sketch 3.8.3 (29802) - http://www.bohemiancoding.com/sketch -->
    <title>Shape</title>
    <desc>Created with Sketch.</desc>
    <defs></defs>
    <g id="Final" stroke="none" stroke-width="1" fill="none" fill-rule="evenodd">
        <g id="Landing-Page-(Desktop)" transform="translate(-430.000000, -4987.000000)" fill="#B3B3B3">
            <g id="email" transform="translate(430.000000, 4987.000000)">
                <path d="M22.9166667,0 L2.08333333,0 C0.934375,0 0,0.935416667 0,2.08333333 L0,14.5833333 C0,15.7322917 0.934375,16.6666667 2.08333333,16.6666667 L22.9166667,16.6666667 C24.065625,16.6666667 25,15.7322917 25,14.5833333 L25,2.08333333 C25,0.935416667 24.065625,0 22.9166667,0 L22.9166667,0 Z M7.55,10.86875 L3.90416667,12.953125 C3.82291667,12.9989583 3.73333333,13.0208333 3.64583333,13.0208333 C3.46458333,13.0208333 3.28958333,12.9270833 3.19270833,12.7583333 C3.05,12.509375 3.13645833,12.190625 3.38645833,12.0479167 L7.03229167,9.96458333 C7.28229167,9.821875 7.6,9.90729167 7.74270833,10.1583333 C7.88645833,10.4083333 7.8,10.7260417 7.55,10.86875 L7.55,10.86875 Z M12.5,10.9375 C12.4020833,10.9375 12.303125,10.9104167 12.2177083,10.8541667 L3.36354167,5.125 C3.121875,4.96875 3.05208333,4.646875 3.209375,4.40520833 C3.36458333,4.16458333 3.6875,4.09479167 3.92916667,4.25208333 L12.5,9.79583333 L21.071875,4.25208333 C21.3135417,4.09479167 21.6364583,4.16458333 21.7916667,4.40416667 C21.9479167,4.64583333 21.878125,4.96770833 21.6375,5.12395833 L12.7833333,10.853125 C12.696875,10.9104167 12.5989583,10.9375 12.5,10.9375 L12.5,10.9375 Z M21.80625,12.7583333 C21.7104167,12.9270833 21.534375,13.0208333 21.3541667,13.0208333 C21.2666667,13.0208333 21.178125,12.9989583 21.0958333,12.953125 L17.45,10.86875 C17.2,10.7260417 17.1135417,10.409375 17.25625,10.1583333 C17.3989583,9.90729167 17.7177083,9.82291667 17.9666667,9.96458333 L21.6125,12.0479167 C21.8625,12.190625 21.9489583,12.509375 21.80625,12.7583333 L21.80625,12.7583333 Z" id="Shape"></path>
            </g>
        </g>
    </g>
</svg>