<?xml version="1.0" encoding="UTF-8" standalone="no"?>
<svg width="18px" height="26px" viewBox="0 0 18 26" version="1.1" xmlns="http://www.w3.org/2000/svg" xmlns:xlink="http://www.w3.org/1999/xlink">
    <!-- Generator: Sketch 3.8.3 (29802) - http://www.bohemiancoding.com/sketch -->
    <title>Shape</title>
    <desc>Created with Sketch.</desc>
    <defs></defs>
    <g id="Final" stroke="none" stroke-width="1" fill="none" fill-rule="evenodd">
        <g id="Landing-Page-(Desktop)" transform="translate(-769.000000, -4982.000000)" fill="#B3B3B3">
            <g id="location" transform="translate(769.000000, 4982.000000)">
                <path d="M9,1.88084842e-15 C4.32952941,1.88084842e-15 0.529411765,3.79905882 0.529411765,8.47058824 C0.529411765,12.9642353 8.22917647,24.678 8.55847059,25.1735294 C8.65588235,25.3207059 8.82211765,25.4117647 9,25.4117647 C9.17788235,25.4117647 9.34305882,25.3207059 9.44152941,25.1735294 C9.76976471,24.678 17.4705882,12.9642353 17.4705882,8.47058824 C17.4705882,3.79905882 13.6704706,0 9,0 L9,1.88084842e-15 Z M9,12.1764706 C6.95647059,12.1764706 5.29411765,10.5141176 5.29411765,8.47058824 C5.29411765,6.42705882 6.95647059,4.76470588 9,4.76470588 C11.0435294,4.76470588 12.7058824,6.42705882 12.7058824,8.47058824 C12.7058824,10.5141176 11.0435294,12.1764706 9,12.1764706 L9,12.1764706 Z" id="Shape"></path>
            </g>
        </g>
    </g>
</svg>