<?xml version="1.0" encoding="UTF-8" standalone="no"?>
<svg width="18px" height="24px" viewBox="0 0 18 24" version="1.1" xmlns="http://www.w3.org/2000/svg" xmlns:xlink="http://www.w3.org/1999/xlink">
    <!-- Generator: Sketch 3.8.3 (29802) - http://www.bohemiancoding.com/sketch -->
    <title>Location</title>
    <desc>Created with Sketch.</desc>
    <defs></defs>
    <g id="Final" stroke="none" stroke-width="1" fill="none" fill-rule="evenodd">
        <g id="Landing-Page-(Desktop)" transform="translate(-769.000000, -4984.000000)" fill="#B3B3B3">
            <g id="Contact-Us" transform="translate(180.000000, 4881.000000)">
                <g id="Address" transform="translate(589.000000, 99.000000)">
                    <path d="M9,28 C9,28 18,18.5228475 18,13 C18,7.4771525 13.9705627,4 9,4 C4.02943725,4 0,7.4771525 0,13 C0,18.5228475 9,28 9,28 L9,28 L9,28 Z M9,16 C10.6568542,16 12,14.6568542 12,13 C12,11.3431458 10.6568542,10 9,10 C7.34314575,10 6,11.3431458 6,13 C6,14.6568542 7.34314575,16 9,16 L9,16 L9,16 Z" id="Location"></path>
                </g>
            </g>
        </g>
    </g>
</svg>