<?xml version="1.0" encoding="UTF-8" standalone="no"?>
<svg width="60px" height="60px" viewBox="0 0 60 60" version="1.1" xmlns="http://www.w3.org/2000/svg" xmlns:xlink="http://www.w3.org/1999/xlink">
    <!-- Generator: Sketch 3.8.3 (29802) - http://www.bohemiancoding.com/sketch -->
    <title>Logo mark</title>
    <desc>Created with Sketch.</desc>
    <defs>
        <circle id="path-1" cx="28" cy="28" r="28"></circle>
        <mask id="mask-2" maskContentUnits="userSpaceOnUse" maskUnits="objectBoundingBox" x="-2" y="-2" width="60" height="60">
            <rect x="-2" y="-2" width="60" height="60" fill="white"></rect>
            <use xlink:href="#path-1" fill="black"></use>
        </mask>
        <circle id="path-3" cx="28" cy="28" r="24.4411765"></circle>
        <mask id="mask-4" maskContentUnits="userSpaceOnUse" maskUnits="objectBoundingBox" x="0" y="0" width="48.8823529" height="48.8823529" fill="white">
            <use xlink:href="#path-3"></use>
        </mask>
    </defs>
    <g id="Final" stroke="none" stroke-width="1" fill="none" fill-rule="evenodd">
        <g id="Landing-Page-(Desktop)" transform="translate(-178.000000, -10.000000)">
            <g id="Header" transform="translate(0.000000, 12.000000)">
                <g id="Logo-mark" transform="translate(180.000000, 0.000000)">
                    <g id="Outer-circles">
                        <path d="M27,0.0175242718 L27,23.7021229 L20.8928499,0.909928563 C20.5696028,0.994500844 20.248634,1.08470555 19.9300548,1.18043152 L26.0340742,23.960942 L14.2729376,3.59005592 C13.9822486,3.75387789 13.6947799,3.92274218 13.4106501,4.09653014 L25.1680488,24.460942 L8.55770081,7.85059403 C8.31783564,8.08209308 8.08209308,8.31783564 7.85059403,8.55770081 L24.460942,25.1680488 L4.09653014,13.4106501 C3.92274218,13.6947799 3.75387789,13.9822486 3.59005592,14.2729376 L23.960942,26.0340742 L1.18043152,19.9300548 C1.08470555,20.248634 0.994500844,20.5696028 0.909928563,20.8928499 L23.7021229,27 L0.0175242718,27 C0.00587397937,27.3318924 1.08516548e-15,27.6652602 1.50356007e-28,28 L23.7021229,28 L0.681653248,34.1683163 C0.754973085,34.4944369 0.833983096,34.8184047 0.918573535,35.1401098 L23.960942,28.9659258 L3.17647481,40.9658435 C3.33126397,41.2615851 3.49118322,41.554218 3.6561144,41.843624 L24.460942,29.8319512 L7.36574975,46.9271435 C7.59124284,47.1728435 7.82106717,47.4145043 8.05510175,47.652005 L25.1680488,30.539058 L12.9862092,51.638623 C13.2672928,51.8175229 13.5517826,51.9915471 13.8395597,52.1605767 L26.0340742,31.039058 L19.682384,54.7438884 C20.0001241,54.8426012 20.3202888,54.9358074 20.6427665,55.0233954 L27,31.2978771 L27,55.9824757 C27.3318924,55.994126 27.6652602,56 28,56 L28,31.2978771 L34.4207287,55.2603627 C34.7460787,55.184027 35.0692429,55.1020174 35.3901111,55.0144439 L28.9659258,31.039058 L41.4069728,52.5875834 C41.6997952,52.4275761 41.9894453,52.2624902 42.2758045,52.0924441 L29.8319512,30.539058 L47.4422992,48.149406 C47.6821644,47.9179069 47.9179069,47.6821644 48.149406,47.4422992 L30.539058,29.8319512 L52.0924441,42.2758045 C52.2624902,41.9894453 52.4275761,41.6997952 52.5875834,41.4069728 L31.039058,28.9659258 L55.0144439,35.3901111 C55.1020174,35.0692429 55.184027,34.7460787 55.2603627,34.4207287 L31.2978771,28 L56,28 C56,27.6652602 55.994126,27.3318924 55.9824755,26.9999939 L31.2978771,27 L55.0233954,20.6427665 C54.9358074,20.3202888 54.8426012,20.0001241 54.7438884,19.682384 L31.039058,26.0340742 L52.1605767,13.8395597 C51.9915471,13.5517826 51.8175229,13.2672928 51.638623,12.9862092 L30.539058,25.1680488 L47.652005,8.05510175 C47.4145043,7.82106717 47.1728435,7.59124284 46.9271435,7.36574975 L29.8319512,24.460942 L41.843624,3.6561144 C41.554218,3.49118322 41.2615851,3.33126397 40.9658435,3.17647481 L28.9659258,23.960942 L35.1401098,0.918573535 C34.8184047,0.833983096 34.4944369,0.754973085 34.1683163,0.681653248 L28,23.7021229 L28,-6.66133815e-16 C27.6652602,0 27.3318924,0.00587397937 26.9999939,0.0175244851 Z" id="Combined-Shape" fill="#333333"></path>
                        <use id="outer" stroke="#333333" mask="url(#mask-2)" stroke-width="4" xlink:href="#path-1"></use>
                        <use id="inner" stroke="#333333" mask="url(#mask-4)" stroke-width="4" fill="#FAFAF5" xlink:href="#path-3"></use>
                    </g>
                    <g id="Scale" transform="translate(12.000000, 15.000000)" fill="#333333">
                        <g id="Group">
                            <path d="M11.1471707,18.0224749 L10.8748415,18.0224749 C10.8748415,18.0011969 10.8715683,17.9799189 10.8637126,17.9593058 L5.96440408,4.11264047 C6.56339757,3.97765809 7.1682828,3.70702839 7.80000818,3.39450761 C7.96497688,3.31272026 8.1319095,3.22827316 8.30146066,3.14249618 C10.0958226,2.2341911 12.1716787,1.18491921 14.7843378,2.44165171 C14.982693,2.53673782 15.1836668,2.64512268 15.3879138,2.76813618 C15.4468311,2.80337788 15.5109856,2.82399096 15.5744855,2.83130527 L15.5744855,4.17580956 L15.2118162,4.17580956 L15.2118162,17.1913026 L14.8916984,17.1913026 L14.8916984,23.0793271 C13.6786547,23.2535408 12.624688,23.711018 11.8921484,24.342044 L10.5429401,24.342044 L10.5429401,25.6433273 L9.99435375,25.6433273 L9.99435375,26.6666667 L21.7555746,26.6666667 L21.7555746,25.6433273 L21.3896322,25.6433273 L21.3896322,24.342044 L20.0862485,24.342044 C19.3360337,23.6950595 18.2467166,23.2309329 16.9957039,23.0660283 L16.9957039,17.1906377 L16.5839368,17.1906377 L16.5839368,4.17580956 L16.2160304,4.17580956 L16.2160304,2.8299754 C16.2481077,2.81933639 16.2795303,2.8053727 16.3096436,2.78741938 C16.5603699,2.63647849 16.805859,2.50814549 17.0474203,2.39843075 C19.5978888,1.24010905 21.6325028,2.26943281 23.3960967,3.16177937 C23.5316067,3.23026797 23.6651528,3.29809163 23.7973896,3.36392047 C24.5377849,3.73296097 25.2389018,4.05279606 25.9367456,4.17248487 L21.0263083,18.0484075 C21.0191072,18.0696855 21.0151794,18.0902986 21.0151794,18.1115766 L20.6989894,18.1115766 C21.2645964,19.0145621 22.5136451,19.6455881 23.9551573,19.6455881 L28.7438321,19.6455881 C30.1846897,19.6455881 31.4337384,19.0152271 32,18.1115766 L31.68381,18.1115766 C31.68381,18.0902986 31.6805368,18.0696855 31.6726812,18.0484075 L26.7759912,4.20972139 C26.9763103,4.19110313 27.1772841,4.15120686 27.3802218,4.08604295 C27.6244016,4.00758029 27.7599116,3.7422701 27.683319,3.49358335 C27.6060718,3.24556154 27.3448713,3.10725447 27.1006915,3.18571714 C26.138374,3.49424829 25.0412013,2.9390252 23.8104824,2.31597846 C21.7536107,1.27535075 19.3635285,0.065828845 16.2160304,1.76009043 L16.2160304,1.77635684e-15 L15.5751401,1.77635684e-15 L15.5751401,1.79200745 C12.3818174,0.023272824 9.96489505,1.24675843 7.88772963,2.2973602 C6.65701076,2.92040694 5.55983798,3.47563003 4.5981752,3.16709888 C4.3533407,3.08863621 4.09279489,3.22627834 4.01554765,3.47496509 C3.9383004,3.72365184 4.0738104,3.98829709 4.3186449,4.06675976 C4.57657215,4.14921205 4.83188086,4.19176807 5.08718956,4.20041226 L0.218648991,17.9579759 C0.211447977,17.978589 0.208174788,17.999867 0.208174788,18.021145 L0,18.021145 C0.55775132,18.9234657 1.78977947,19.5551566 3.21165255,19.5551566 L7.93551819,19.5551566 C9.35739127,19.5564865 10.5894194,18.9247955 11.1471707,18.0224749 L11.1471707,18.0224749 L11.1471707,18.0224749 Z M31.3021562,18.1115766 L26.5363938,4.64326086 L26.5363938,18.1115766 L31.3021562,18.1115766 L31.3021562,18.1115766 L31.3021562,18.1115766 Z M26.1632503,18.1115766 L26.1632503,18.1102467 L26.1632503,4.64326086 L21.4105806,18.075005 L21.3974878,18.1115766 L26.1632503,18.1115766 L26.1632503,18.1115766 L26.1632503,18.1115766 Z M5.72742523,4.55415919 L5.72742523,18.0224749 L10.4931877,18.0224749 L5.72742523,4.55415919 L5.72742523,4.55415919 L5.72742523,4.55415919 Z M0.589828567,18.0224749 L5.35559102,18.0224749 L5.35559102,18.0204801 L5.35559102,4.55415919 L0.602266683,17.9865683 L0.589828567,18.0224749 L0.589828567,18.0224749 L0.589828567,18.0224749 Z" id="Shape"></path>
                        </g>
                    </g>
                </g>
            </g>
        </g>
    </g>
</svg>