<?xml version="1.0" encoding="UTF-8" standalone="no"?>
<svg width="23px" height="23px" viewBox="0 0 23 23" version="1.1" xmlns="http://www.w3.org/2000/svg" xmlns:xlink="http://www.w3.org/1999/xlink">
    <!-- Generator: Sketch 3.8.3 (29802) - http://www.bohemiancoding.com/sketch -->
    <title>phone</title>
    <desc>Created with Sketch.</desc>
    <defs></defs>
    <g id="Final" stroke="none" stroke-width="1" fill="none" fill-rule="evenodd">
        <g id="Landing-Page-(Desktop)" transform="translate(-180.000000, -4983.000000)" fill="#B3B3B3">
            <g id="Contact-Us" transform="translate(180.000000, 4881.000000)">
                <g id="Phone" transform="translate(0.000000, 98.000000)">
                    <path d="M14.0000108,20.1435069 C14.0000108,20.1435069 15.9401509,19.0509896 16.4480659,18.7884649 C16.9545436,18.5249973 17.4792294,18.4585416 17.7978744,18.6498971 C18.2803937,18.9402295 22.3322151,21.5913991 22.6733805,21.826116 C23.0145463,22.0613042 23.1788997,22.7329336 22.709797,23.390895 C22.2426112,24.0488564 20.0873257,26.6505372 19.1740368,26.6227294 C18.2593106,26.5935077 14.4561762,26.5114984 7.28451038,19.4553812 C0.114281905,12.4016206 0.0294695942,8.65981923 0.000240364831,7.76007093 C-0.0289884875,6.86079431 2.61600358,4.74033006 3.28491823,4.28032289 C3.95479097,3.82078667 4.63855985,3.99376062 4.87622601,4.31708557 C5.14647488,4.68518586 7.81063387,8.65793361 8.10388273,9.11322803 C8.30465313,9.42429851 8.23086159,9.94322074 7.96300811,10.4418762 C7.69659233,10.9414743 6.58588727,12.849845 6.58588727,12.849845 C6.58588727,12.849845 7.36884346,14.1634112 10.0167105,16.7674489 C12.6650565,19.3719576 14.0000108,20.1435069 14.0000108,20.1435069 L14.0000108,20.1435069 L14.0000108,20.1435069 Z" id="phone"></path>
                </g>
            </g>
        </g>
    </g>
</svg>